# xmcd
#
# Track frame offsets:
#	150
#	13834
#	26508
#	40140
#	54951
#	67526
#	81375
#	96286
#	111479
#	125027
#	138315
#	152646
#
# Disc length: 2309
#
# Revision: 1
# Processed by: cddbd v1.5.1PL0 Copyright (c) Steve Scherf et al.
# Submitted via: CDex 1.50Beta7
# Normalized: r0:DSETVAR1,TDELIM( - )
#
DISCID=9a09030c
DTITLE=Various Artist - Roots Of The Blues Vol. 2
DYEAR=1900
DGENRE=Blues
TTITLE0=Meade Lux Lewis - Honky Tonk Train Blues
TTITLE1=Lonnie Johnson - Flood Water Blues
TTITLE2=Rosetta Howard - Come Easy Go Easy
TTITLE3=Tampa Red - Kingfish Blues
TTITLE4=Georgia White - Dead Man Blues
TTITLE5=The Honeydripper - Soft and Mellow
TTITLE6=Teddy Wilson - Blues In C Sharp Minor
TTITLE7=Jack Teagarden - Texas Tea Party
TTITLE8=Lil Green - Why Don't You Do Right
TTITLE9=Leadbelly - Good Morning Blues
TTITLE10=Bea Booze - See See Rider
TTITLE11=Bing Crosby - St. Louis Blues
EXTD=
EXTT0=
EXTT1=
EXTT2=
EXTT3=
EXTT4=
EXTT5=
EXTT6=
EXTT7=
EXTT8=
EXTT9=
EXTT10=
EXTT11=
PLAYORDER=
